<mxfile host="app.diagrams.net" modified="2023-04-15T19:36:50.725Z" agent="Mozilla/5.0 (Windows NT 10.0; Win64; x64) AppleWebKit/537.36 (KHTML, like Gecko) Chrome/112.0.0.0 Safari/537.36" version="21.1.8" etag="Q047f9XlAt1hmCcuIceU" type="github">
  <diagram name="Page-1" id="9gSi7oTfZUiadgrvyu2V">
    <mxGraphModel>
      <root>
        <mxCell id="0" />
        <mxCell id="1" parent="0" />
      </root>
    </mxGraphModel>
  </diagram>
</mxfile>
